<svg xmlns="http://www.w3.org/2000/svg" viewBox="0 0 512 512">
  <path d="M0 0 C0.95 -0 1.89 -0.01 2.86 -0.01 C6.03 -0.02 9.19 -0.03 12.36 -0.03 C14.63 -0.04 16.9 -0.04 19.17 -0.05 C26.62 -0.07 34.08 -0.08 41.53 -0.09 C44.1 -0.1 46.67 -0.1 49.25 -0.1 C59.94 -0.12 70.64 -0.13 81.34 -0.14 C84.12 -0.14 86.89 -0.15 89.66 -0.15 C90.35 -0.15 91.04 -0.15 91.75 -0.15 C102.9 -0.16 114.04 -0.18 125.19 -0.22 C136.66 -0.25 148.13 -0.27 159.59 -0.27 C166.02 -0.27 172.45 -0.28 178.88 -0.31 C184.94 -0.33 190.99 -0.33 197.05 -0.32 C199.26 -0.32 201.47 -0.33 203.69 -0.34 C224.49 -0.47 242.48 1.78 258.25 16.73 C271.62 30.85 273.85 46.65 273.8 65.44 C273.8 66.96 273.81 68.49 273.81 70.02 C273.82 74.19 273.82 78.36 273.82 82.53 C273.81 87.04 273.82 91.54 273.83 96.05 C273.84 104.87 273.85 113.69 273.84 122.52 C273.84 129.69 273.84 136.86 273.85 144.03 C273.85 145.05 273.85 146.07 273.85 147.13 C273.85 149.2 273.85 151.28 273.85 153.36 C273.86 172.81 273.86 192.27 273.86 211.72 C273.85 229.51 273.86 247.3 273.88 265.08 C273.9 283.36 273.91 301.64 273.9 319.92 C273.9 330.18 273.9 340.44 273.92 350.69 C273.93 359.42 273.93 368.15 273.92 376.88 C273.91 381.33 273.91 385.78 273.93 390.24 C273.94 394.32 273.93 398.4 273.92 402.48 C273.92 403.95 273.92 405.42 273.93 406.89 C274.02 424.81 269.64 440.84 256.92 453.96 C245.07 464.82 231.62 469.47 215.72 469.41 C214.77 469.42 213.82 469.42 212.85 469.43 C209.69 469.44 206.54 469.44 203.38 469.44 C201.11 469.44 198.84 469.45 196.57 469.46 C190.42 469.48 184.26 469.48 178.11 469.48 C174.25 469.48 170.4 469.49 166.55 469.49 C153.79 469.51 141.03 469.52 128.27 469.52 C127.93 469.52 127.93 469.52 126.19 469.52 C125.85 469.52 125.85 469.52 124.11 469.52 C112.98 469.52 101.85 469.54 90.73 469.56 C79.27 469.59 67.82 469.61 56.36 469.6 C49.95 469.6 43.53 469.61 37.11 469.63 C31.06 469.65 25.02 469.65 18.98 469.64 C16.77 469.63 14.56 469.64 12.36 469.65 C-8.43 469.76 -26.41 467.5 -42.17 452.57 C-55.54 438.44 -57.77 422.64 -57.72 403.86 C-57.72 402.33 -57.73 400.8 -57.73 399.28 C-57.74 395.11 -57.74 390.94 -57.74 386.77 C-57.73 382.26 -57.74 377.75 -57.75 373.24 C-57.76 364.42 -57.76 355.6 -57.76 346.78 C-57.76 339.61 -57.76 332.44 -57.77 325.26 C-57.77 324.24 -57.77 323.22 -57.77 322.17 C-57.77 320.09 -57.77 318.01 -57.77 315.94 C-57.78 296.48 -57.78 277.03 -57.77 257.57 C-57.77 239.78 -57.78 222 -57.8 204.21 C-57.82 185.93 -57.83 167.65 -57.82 149.37 C-57.82 139.11 -57.82 128.86 -57.84 118.6 C-57.85 109.87 -57.85 101.14 -57.84 92.41 C-57.83 87.96 -57.83 83.51 -57.84 79.06 C-57.85 74.98 -57.85 70.9 -57.84 66.82 C-57.84 65.35 -57.84 63.88 -57.85 62.41 C-57.94 44.5 -53.57 28.43 -40.83 15.33 C-29.05 4.49 -15.81 -0 0 0 Z " fill="#f8fafc" transform="translate(148.45944213867188,21.852828979492188)"/>
  <path d="M0 0 C0.95 -0 1.89 -0.01 2.86 -0.01 C6.03 -0.02 9.19 -0.03 12.36 -0.03 C14.63 -0.04 16.9 -0.04 19.17 -0.05 C26.62 -0.07 34.08 -0.08 41.53 -0.09 C44.1 -0.1 46.67 -0.1 49.25 -0.1 C59.94 -0.12 70.64 -0.13 81.34 -0.14 C84.12 -0.14 86.89 -0.15 89.66 -0.15 C90.35 -0.15 91.04 -0.15 91.75 -0.15 C102.9 -0.16 114.04 -0.18 125.19 -0.22 C136.66 -0.25 148.13 -0.27 159.59 -0.27 C166.02 -0.27 172.45 -0.28 178.88 -0.31 C184.94 -0.33 190.99 -0.33 197.05 -0.32 C199.26 -0.32 201.47 -0.33 203.69 -0.34 C224.49 -0.47 242.48 1.78 258.25 16.73 C271.62 30.85 273.85 46.65 273.8 65.44 C273.8 66.96 273.81 68.49 273.81 70.02 C273.82 74.19 273.82 78.36 273.82 82.53 C273.81 87.04 273.82 91.54 273.83 96.05 C273.84 104.87 273.85 113.69 273.84 122.52 C273.84 129.69 273.84 136.86 273.85 144.03 C273.85 145.05 273.85 146.07 273.85 147.13 C273.85 149.2 273.85 151.28 273.85 153.36 C273.86 172.81 273.86 192.27 273.86 211.72 C273.85 229.51 273.86 247.3 273.88 265.08 C273.9 283.36 273.91 301.64 273.9 319.92 C273.9 330.18 273.9 340.44 273.92 350.69 C273.93 359.42 273.93 368.15 273.92 376.88 C273.91 381.33 273.91 385.78 273.93 390.24 C273.94 394.32 273.93 398.4 273.92 402.48 C273.92 403.95 273.92 405.42 273.93 406.89 C274.02 424.81 269.64 440.84 256.92 453.96 C245.07 464.82 231.62 469.47 215.72 469.41 C214.77 469.42 213.82 469.42 212.85 469.43 C209.69 469.44 206.54 469.44 203.38 469.44 C201.11 469.44 198.84 469.45 196.57 469.46 C190.42 469.48 184.26 469.48 178.11 469.48 C174.25 469.48 170.4 469.49 166.55 469.49 C153.79 469.51 141.03 469.52 128.27 469.52 C127.93 469.52 127.93 469.52 126.19 469.52 C125.85 469.52 125.85 469.52 124.11 469.52 C112.98 469.52 101.85 469.54 90.73 469.56 C79.27 469.59 67.82 469.61 56.36 469.6 C49.95 469.6 43.53 469.61 37.11 469.63 C31.06 469.65 25.02 469.65 18.98 469.64 C16.77 469.63 14.56 469.64 12.36 469.65 C-8.43 469.76 -26.41 467.5 -42.17 452.57 C-55.54 438.44 -57.77 422.64 -57.72 403.86 C-57.72 402.33 -57.73 400.8 -57.73 399.28 C-57.74 395.11 -57.74 390.94 -57.74 386.77 C-57.73 382.26 -57.74 377.75 -57.75 373.24 C-57.76 364.42 -57.76 355.6 -57.76 346.78 C-57.76 339.61 -57.76 332.44 -57.77 325.26 C-57.77 324.24 -57.77 323.22 -57.77 322.17 C-57.77 320.09 -57.77 318.01 -57.77 315.94 C-57.78 296.48 -57.78 277.03 -57.77 257.57 C-57.77 239.78 -57.78 222 -57.8 204.21 C-57.82 185.93 -57.83 167.65 -57.82 149.37 C-57.82 139.11 -57.82 128.86 -57.84 118.6 C-57.85 109.87 -57.85 101.14 -57.84 92.41 C-57.83 87.96 -57.83 83.51 -57.84 79.06 C-57.85 74.98 -57.85 70.9 -57.84 66.82 C-57.84 65.35 -57.84 63.88 -57.85 62.41 C-57.94 44.5 -53.57 28.43 -40.83 15.33 C-29.05 4.49 -15.81 -0 0 0 Z M-27.31 33.03 C-33.05 40.22 -35.58 48.47 -35.59 57.62 C-35.59 58.71 -35.6 59.81 -35.6 60.93 C-35.6 62.13 -35.6 63.33 -35.6 64.56 C-35.6 65.83 -35.61 67.11 -35.61 68.42 C-35.62 71.96 -35.62 75.49 -35.62 79.03 C-35.62 82.84 -35.63 86.66 -35.64 90.47 C-35.65 98.81 -35.66 107.15 -35.66 115.5 C-35.66 120.71 -35.67 125.92 -35.67 131.13 C-35.68 145.56 -35.69 159.99 -35.7 174.42 C-35.7 175.34 -35.7 176.27 -35.7 177.22 C-35.7 178.14 -35.7 179.07 -35.7 180.02 C-35.7 181.9 -35.7 183.77 -35.7 185.65 C-35.7 186.58 -35.7 187.51 -35.7 188.47 C-35.7 203.54 -35.72 218.61 -35.75 233.67 C-35.77 249.15 -35.78 264.63 -35.78 280.11 C-35.78 288.8 -35.79 297.48 -35.81 306.17 C-35.82 313.57 -35.83 320.97 -35.82 328.37 C-35.82 332.14 -35.82 335.91 -35.83 339.68 C-35.85 343.78 -35.84 347.88 -35.83 351.98 C-35.83 353.16 -35.84 354.34 -35.85 355.56 C-35.78 367.8 -33.22 377.72 -24.87 386.9 C-16.05 395.22 -5.61 395.75 5.92 395.76 C7.5 395.77 9.08 395.79 10.66 395.81 C15.03 395.85 19.4 395.87 23.77 395.89 C27.5 395.9 31.24 395.93 34.97 395.96 C48.18 396.06 61.39 396.1 74.59 396.14 C78.74 396.15 82.9 396.16 87.05 396.18 C106.45 396.25 125.85 396.3 145.25 396.32 C149.94 396.33 154.64 396.34 159.33 396.35 C166.86 396.37 174.39 396.38 181.92 396.38 C185.41 396.38 188.9 396.38 192.39 396.39 C196.23 396.4 200.07 396.4 203.91 396.39 C204.46 396.39 204.46 396.39 207.27 396.41 C220.2 396.36 232.58 394.98 242.42 385.83 C247.49 380.37 250.61 373.77 250.74 366.29 C250.76 365.29 250.78 364.28 250.8 363.25 C250.82 362.15 250.83 361.05 250.85 359.92 C250.86 359.34 250.86 359.34 250.91 356.42 C250.98 352.56 251.03 348.71 251.09 344.86 C251.11 343.51 251.13 342.16 251.15 340.81 C251.61 311.5 251.72 282.2 251.74 252.89 C251.74 248.69 251.75 244.48 251.75 240.28 C251.76 228.53 251.77 216.78 251.78 205.04 C251.78 204.3 251.78 203.56 251.78 202.8 C251.78 202.07 251.78 201.33 251.78 200.57 C251.78 199.07 251.78 197.58 251.78 196.09 C251.78 195.35 251.78 194.6 251.78 193.84 C251.79 181.69 251.8 169.55 251.83 157.4 C251.85 144.8 251.86 132.2 251.86 119.6 C251.86 112.57 251.87 105.55 251.89 98.52 C251.91 91.96 251.91 85.4 251.9 78.85 C251.9 76.45 251.9 74.05 251.91 71.65 C251.92 68.37 251.92 65.09 251.91 61.82 C251.92 60.87 251.92 59.93 251.93 58.96 C251.85 48.17 248.78 39.24 241.54 31.15 C232.19 23.28 222.16 21.99 210.31 22.01 C209.41 22 208.5 22 207.56 22 C204.53 21.99 201.5 21.99 198.47 21.99 C196.29 21.98 194.11 21.98 191.93 21.97 C186.02 21.96 180.11 21.95 174.2 21.95 C170.5 21.94 166.8 21.94 163.11 21.94 C151.53 21.92 139.96 21.91 128.39 21.91 C127.07 21.91 125.75 21.91 124.4 21.91 C123.74 21.91 123.08 21.91 122.4 21.91 C111.05 21.9 99.7 21.88 88.36 21.86 C78.03 21.84 67.7 21.83 57.38 21.82 C51.22 21.82 45.06 21.82 38.89 21.8 C33.1 21.78 27.3 21.78 21.5 21.79 C19.38 21.79 17.25 21.79 15.13 21.78 C-16.15 21.64 -16.15 21.64 -27.31 33.03 Z " fill="#115e59" transform="translate(148.45944213867188,21.852828979492188)"/>
  <path d="M0 0 C7.38 3.51 12.94 8.04 17.05 15.09 C23.16 19.11 32.53 18.68 39.54 17.5 C50.39 14.46 58.68 8.41 67.05 1.09 C70.57 -0.09 73.35 -0.12 77.05 0.09 C79.05 2.09 79.05 2.09 79.73 5.71 C79.63 8.48 79.28 9.78 77.6 12 C75.19 14.23 72.69 16.15 70.05 18.09 C69.74 18.31 69.74 18.31 68.18 19.46 C66.13 20.96 64.06 22.43 61.98 23.9 C61.65 24.13 61.65 24.13 59.98 25.32 C54.26 29.23 48.23 32.76 41.05 32.09 C41.29 32.54 41.29 32.54 42.51 34.83 C46 41.53 48.88 47.54 50.05 55.09 C50.77 55.03 51.5 54.97 52.24 54.91 C61.13 54.5 61.13 54.5 64.61 57.34 C70.32 63.78 69.65 70.76 69.22 78.95 C67.71 97.14 54.44 114.76 44.05 129.09 C44.33 129.06 44.33 129.06 45.78 128.93 C50.65 128.51 55.53 128.08 60.4 127.66 C64.7 127.29 68.99 126.91 73.29 126.51 C82.64 125.65 91.97 124.89 101.36 124.77 C101.73 124.76 101.73 124.76 103.6 124.72 C106.51 124.72 108.55 124.75 111 126.39 C112.78 129.28 112.4 131.81 112.05 135.09 C110.99 136.74 110.99 136.74 109.05 138.09 C106.51 138.6 104.15 138.94 101.58 139.17 C100.83 139.25 100.08 139.33 99.31 139.41 C96.89 139.65 94.47 139.87 92.05 140.09 C91.65 140.12 91.65 140.12 89.65 140.3 C84.76 140.75 79.87 141.14 74.98 141.52 C72.48 141.71 69.98 141.91 67.49 142.12 C57.31 142.92 47.25 143.26 37.05 143.09 C37.01 143.7 36.98 144.31 36.94 144.94 C35.89 163.03 34.43 181.08 32.88 199.13 C32.66 201.72 32.44 204.31 32.22 206.9 C31.91 210.6 31.59 214.29 31.27 217.99 C31.17 219.1 31.08 220.22 30.98 221.37 C29.73 235.41 29.73 235.41 26.05 239.09 C19.89 239.65 19.89 239.65 17.17 237.84 C12.34 230.31 15.22 218.34 16.38 210.05 C17.54 201.33 18.55 192.62 19.4 183.88 C19.5 182.79 19.61 181.7 19.72 180.59 C20.15 176.15 20.58 171.72 21 167.28 C21.32 163.98 21.64 160.68 21.96 157.38 C22.01 156.87 22.01 156.87 22.25 154.32 C22.34 153.4 22.43 152.47 22.52 151.52 C22.6 150.71 22.68 149.9 22.76 149.06 C23.05 147.09 23.05 147.09 24.05 145.09 C22.73 145.09 21.41 145.09 20.05 145.09 C19.98 146.13 19.92 147.17 19.85 148.24 C18.41 171.17 16.46 193.97 13.67 216.78 C13.57 217.67 13.46 218.56 13.35 219.48 C13.15 221.13 12.94 222.78 12.73 224.43 C11.08 238.05 11.08 238.05 13.26 242.65 C13.83 243.31 14.4 243.97 14.98 244.65 C15.62 245.39 16.26 246.13 16.92 246.9 C19.75 249.81 22.75 252.47 25.84 255.11 C29.24 258.16 32.15 261.57 35.05 265.09 C35.83 266.03 36.61 266.98 37.42 267.96 C40.11 271.47 40.41 273.67 40.05 278.09 C38.98 279.96 38.98 279.96 37.05 281.09 C32.93 281.52 30.82 281.65 27.42 279.18 C26.64 278.32 25.85 277.47 25.05 276.59 C24.62 276.13 24.62 276.13 22.45 273.79 C22.05 273.35 22.05 273.35 20.05 271.09 C19.75 270.76 19.75 270.76 18.24 269.1 C16.47 267.12 14.76 265.11 13.05 263.09 C12.24 262.15 11.43 261.22 10.59 260.26 C-1.09 246.75 -11.07 233.17 -18.95 217.09 C-18.93 218.36 -18.91 219.64 -18.88 220.96 C-18.81 224.84 -18.81 224.84 -20.08 227.09 C-22.9 228.59 -24.81 228.54 -27.95 228.09 C-31.89 224.98 -33.6 221.06 -35.45 216.52 C-35.78 215.73 -36.11 214.94 -36.45 214.13 C-41.27 202.2 -45.3 189.95 -49.41 177.76 C-49.64 177.09 -49.87 176.42 -50.1 175.73 C-51.51 171.54 -52.77 167.34 -53.95 163.09 C-57.87 166.32 -61.61 169.7 -65.14 173.35 C-86.01 194.94 -86.01 194.94 -99.2 196.46 C-101.95 196.09 -101.95 196.09 -103.83 194.96 C-105.52 192.15 -105.4 190.31 -104.95 187.09 C-102.06 182.73 -98.45 180.23 -94.08 177.52 C-88.53 173.96 -83.38 170.15 -78.39 165.84 C-77.83 165.35 -77.27 164.87 -76.7 164.37 C-73.96 161.97 -71.33 159.49 -68.76 156.91 C-68.3 156.44 -68.3 156.44 -65.95 154.09 C-66.51 154.09 -66.51 154.09 -69.32 154.12 C-73.43 154.15 -77.54 154.18 -81.65 154.2 C-83.43 154.21 -85.21 154.22 -86.99 154.24 C-89.55 154.26 -92.11 154.27 -94.66 154.28 C-95.46 154.29 -96.26 154.3 -97.09 154.31 C-99.04 154.31 -101 154.21 -102.95 154.09 C-104.95 152.09 -104.95 152.09 -105.33 148.15 C-105.22 144.4 -105.22 144.4 -103.33 142.15 C-92.9 137.48 -78.11 139.02 -66.89 139.06 C-65.83 139.06 -64.77 139.06 -63.69 139.06 C-61.11 139.07 -58.53 139.08 -55.95 139.09 C-55.96 138.26 -55.97 137.44 -55.98 136.59 C-56.06 128.81 -56.12 121.02 -56.16 113.24 C-56.18 109.24 -56.21 105.24 -56.25 101.24 C-56.3 97.38 -56.32 93.51 -56.33 89.65 C-56.34 88.18 -56.35 86.7 -56.38 85.23 C-56.58 70.91 -56.58 70.91 -51.95 65.09 C-46.13 59.69 -40.86 59.81 -33.2 59.37 C-29.95 59.09 -29.95 59.09 -26.95 58.09 C-27.32 57.86 -27.32 57.86 -29.15 56.7 C-31.14 55.43 -33.13 54.16 -35.11 52.88 C-36.71 51.87 -38.32 50.88 -39.98 49.98 C-43.21 48.17 -43.92 47.18 -45.08 43.59 C-44.95 40.09 -44.95 40.09 -43.52 37.59 C-39.87 35.45 -36.89 36.23 -32.95 37.09 C-31.96 37.27 -30.97 37.46 -29.95 37.65 C-29.29 37.79 -28.63 37.94 -27.95 38.09 C-25.95 35.09 -25.95 35.09 -26.2 31.77 C-26.95 28.09 -26.95 28.09 -28.02 25.4 C-29.65 19.61 -30.17 13.36 -28.04 7.64 C-22.26 -2.42 -10.42 -3.22 0 0 Z " fill="#115e59" transform="translate(252.953125,84.9140625)"/>
  <path d="M0 0 C0.83 -0.02 1.67 -0.05 2.53 -0.07 C8.04 -0.1 11.26 0.62 15.56 4.38 C24.69 15.47 26.28 26.38 25.56 40.38 C25.35 42.11 25.12 43.84 24.88 45.56 C24.27 50.54 25.53 54.6 26.85 59.38 C30.13 73.11 25.84 90.47 18.75 102.44 C10.78 109.5 -5.06 107.57 -15.06 107.94 C-16.18 107.98 -17.3 108.02 -18.46 108.07 C-27.79 108.4 -37.1 108.48 -46.44 108.38 C-42.41 100.12 -38.27 91.97 -33.69 84 C-24.67 68.19 -24.67 68.19 -25.44 59.38 C-28.08 59.38 -30.72 59.38 -33.44 59.38 C-33.7 60.23 -33.97 61.09 -34.24 61.97 C-36.13 67.36 -38.75 72.41 -41.3 77.52 C-42.25 79.43 -43.18 81.35 -44.12 83.28 C-44.73 84.51 -45.34 85.74 -45.96 86.97 C-46.5 88.08 -47.05 89.19 -47.62 90.33 C-49.55 93.56 -51.65 95.87 -54.44 98.38 C-54.77 98.38 -55.1 98.38 -55.44 98.38 C-55.49 90.86 -55.52 83.35 -55.55 75.84 C-55.56 73.28 -55.57 70.73 -55.59 68.17 C-55.61 64.5 -55.62 60.83 -55.63 57.16 C-55.64 56.02 -55.65 54.87 -55.66 53.68 C-55.66 52.62 -55.66 51.56 -55.66 50.47 C-55.67 49.53 -55.67 48.59 -55.68 47.63 C-55.44 45.38 -55.44 45.38 -53.44 43.38 C-50.7 43.07 -50.7 43.07 -47.26 43 C-46.02 42.96 -44.78 42.93 -43.5 42.89 C-42.85 42.88 -42.85 42.88 -39.56 42.81 C-37 42.75 -34.44 42.69 -31.88 42.62 C-31.31 42.61 -31.31 42.61 -28.43 42.55 C-25.93 42.4 -23.82 42.1 -21.44 41.38 C-20.84 33.8 -22.29 29.66 -26.44 23.38 C-26.84 22.75 -27.24 22.12 -27.66 21.48 C-28.56 20.1 -29.5 18.73 -30.44 17.38 C-22.56 5.98 -13.93 0.02 0 0 Z " fill="#f8fafc" transform="translate(264.4375,113.625)"/>
  <path d="M0 0 C2.06 1.62 2.06 1.62 3 4 C3.25 6.88 3.25 6.88 2 10 C-6.16 17.61 -15.71 19.24 -26.44 19.31 C-27.23 19.32 -28.03 19.32 -28.84 19.33 C-32.73 19.28 -34.7 19.2 -38 17 C-38.33 15.12 -38.33 15.12 -38.25 13 C-38.24 12.65 -38.24 12.65 -38.2 10.88 C-38 9 -38 9 -37 7 C-34.01 6 -31.27 5.7 -28.15 5.4 C-21.46 4.77 -15.96 3.95 -9.93 0.84 C-6.43 -0.68 -3.75 -0.52 0 0 Z " fill="#115e59" transform="translate(285,165)"/>
  <path d="M0 0 C0.49 10.46 -0.34 19.57 -7 28 C-7.33 28 -7.66 28 -8 28 C-8.62 24.8 -9.19 21.59 -9.75 18.38 C-9.93 17.47 -10.1 16.57 -10.29 15.64 C-11.07 10.98 -11.39 8.77 -9.21 4.44 C-6.18 1.1 -4.5 0 0 0 Z " fill="#f8fafc" transform="translate(310,152)"/>
  <path d="M0 0 C2 1.56 2 1.56 3 4 C3.14 6.98 2.72 9.02 2 12 C-0.39 14.21 -2.3 14.03 -5.56 14.38 C-9 14 -9 14 -10.94 12.44 C-12.43 9.02 -12.53 6.69 -12 3 C-8.33 -1.44 -5.39 -1.6 0 0 Z " fill="#115e59" transform="translate(259,131)"/>
  <path d="M0 0 C5.11 0.04 9.36 1.13 13.44 4.31 C13.77 5.3 14.1 6.29 14.44 7.31 C14.03 7.48 14.03 7.48 11.95 8.34 C10.88 8.78 9.8 9.23 8.69 9.69 C7.62 10.13 6.55 10.57 5.45 11.02 C2.44 12.31 2.44 12.31 0.23 13.54 C-1.56 14.31 -1.56 14.31 -4.56 13.31 C-5.51 10.47 -5.7 8.64 -5.69 5.69 C-5.69 4.89 -5.69 4.09 -5.7 3.27 C-5.44 -0.47 -3.28 0.1 0 0 Z " fill="#f8fafc" transform="translate(241.5625,95.6875)"/>
  <path d="M0 0 C1.32 0 2.64 0 4 0 C4.16 0.57 4.33 1.14 4.5 1.73 C6.23 7.73 7.97 13.74 9.71 19.74 C10.35 21.97 11 24.2 11.64 26.44 C18.21 49.25 18.21 49.25 22.26 59.52 C23 62 23 62 22 65 C17.26 54.51 13.45 43.87 9.88 32.94 C9.36 31.38 8.84 29.82 8.32 28.26 C0 3.09 0 3.09 0 0 Z " fill="#f8fafc" transform="translate(210,235)"/>
</svg>
